 <svg
            xmlns="http://www.w3.org/2000/svg"
            class="svg-icon"
            style="width: 2em;height: 2em;vertical-align: middle;fill: currentColor;overflow: hidden"
            viewBox="0 0 1024 1024"
            version="1.1"
          >
            <path d="M693.527273 460.8c32.581818 0 65.163636 0 97.745455 0 0-23.272727 0-41.890909 0-65.163636-37.236364 0-65.163636 0-97.745455 0C693.527273 418.909091 693.527273 437.527273 693.527273 460.8z" />
            <path d="M232.727273 623.709091c32.581818 0 65.163636 0 97.745455 0 0-23.272727 0-41.890909 0-65.163636-32.581818 0-65.163636 0-97.745455 0C232.727273 581.818182 232.727273 605.090909 232.727273 623.709091z" />
            <path d="M465.454545 623.709091c32.581818 0 65.163636 0 97.745455 0 0-23.272727 0-41.890909 0-65.163636-32.581818 0-65.163636 0-97.745455 0C465.454545 581.818182 465.454545 605.090909 465.454545 623.709091z" />
            <path d="M791.272727 558.545455c-32.581818 0-65.163636 0-93.090909 0 0 23.272727 0 46.545455 0 65.163636 32.581818 0 60.509091 0 93.090909 0C791.272727 600.436364 791.272727 581.818182 791.272727 558.545455z" />
            <path d="M232.727273 786.618182c37.236364 0 65.163636 0 97.745455 0 0-23.272727 0-41.890909 0-65.163636-32.581818 0-65.163636 0-97.745455 0C232.727273 749.381818 232.727273 768 232.727273 786.618182z" />
            <path d="M460.8 791.272727c32.581818 0 65.163636 0 97.745455 0 0-23.272727 0-41.890909 0-65.163636-32.581818 0-65.163636 0-97.745455 0C460.8 749.381818 460.8 768 460.8 791.272727z" />
            <path d="M693.527273 791.272727c32.581818 0 65.163636 0 97.745455 0 0-23.272727 0-41.890909 0-65.163636-32.581818 0-65.163636 0-97.745455 0C693.527273 749.381818 693.527273 772.654545 693.527273 791.272727z" />
            <path d="M330.472727 395.636364c-32.581818 0-65.163636 0-97.745455 0C232.727273 418.909091 232.727273 437.527273 232.727273 456.145455c32.581818 0 65.163636 0 97.745455 0C330.472727 437.527273 330.472727 418.909091 330.472727 395.636364z" />
            <path d="M563.2 395.636364c-32.581818 0-65.163636 0-97.745455 0 0 23.272727 0 41.890909 0 60.509091 32.581818 0 65.163636 0 97.745455 0C563.2 437.527273 563.2 418.909091 563.2 395.636364z" />
            <path d="M921.6 93.090909l-121.018182 0L800.581818 23.272727C800.581818 9.309091 791.272727 0 777.309091 0s-23.272727 9.309091-23.272727 23.272727L754.036364 93.090909l-218.763636 0L535.272727 23.272727C535.272727 9.309091 525.963636 0 512 0c-13.963636 0-23.272727 9.309091-23.272727 23.272727L488.727273 93.090909 274.618182 93.090909 274.618182 23.272727C274.618182 9.309091 265.309091 0 251.345455 0 237.381818 0 228.072727 9.309091 228.072727 23.272727L228.072727 93.090909 102.4 93.090909C46.545455 93.090909 0 139.636364 0 195.490909l0 721.454545C0 977.454545 46.545455 1024 102.4 1024l814.545455 0c55.854545 0 102.4-46.545455 102.4-102.4L1019.345455 195.490909C1024 139.636364 977.454545 93.090909 921.6 93.090909zM977.454545 921.6c0 32.581818-27.927273 55.854545-55.854545 55.854545L102.4 977.454545C74.472727 977.454545 46.545455 949.527273 46.545455 921.6L46.545455 195.490909C46.545455 167.563636 74.472727 139.636364 102.4 139.636364l121.018182 0 0 69.818182C228.072727 218.763636 237.381818 232.727273 251.345455 232.727273c13.963636 0 23.272727-9.309091 23.272727-23.272727L274.618182 139.636364l214.109091 0 0 69.818182C488.727273 218.763636 498.036364 232.727273 512 232.727273c13.963636 0 23.272727-9.309091 23.272727-23.272727L535.272727 139.636364l218.763636 0 0 69.818182c0 13.963636 9.309091 23.272727 23.272727 23.272727s23.272727-9.309091 23.272727-23.272727L800.581818 139.636364l121.018182 0C949.527273 139.636364 977.454545 167.563636 977.454545 195.490909L977.454545 921.6z" />
          </svg>